<?xml version="1.0" encoding="utf-8"?>
<svg version="1.1" xmlns="http://www.w3.org/2000/svg" xmlns:xlink="http://www.w3.org/1999/xlink" viewBox="0 0 500 500" fill="none">
<g id="OBJECTS">
	<g>
		<path style="fill:#003233;" d="M192.432,234.95l0.87-0.871c0.756-0.755,0.756-1.982,0-2.737l-11.98-11.98
			c-0.757-0.757-1.983-0.756-2.739,0l-0.87,0.87l-8.423,17.102l-0.916,4.527l-4.689,4.819l4.115,4.116
			c0.755,0.756,0.756,1.982,0,2.738l-43.25,43.25c2.725,1.4,5.798,2.216,9.074,2.216h61.999c4.956-0.001,9.478-1.815,12.972-4.8
			C211.537,264.338,197.354,241.771,192.432,234.95z"/>
		<path style="opacity:0.5;fill:#003233;" d="M202.433,280.003l-10.037-45.089l-17.102,8.423l-4.528,0.916l-4.82,4.689l1.854,1.854
			c0.755,0.756,0.756,1.982,0,2.738l-43.262,43.263c1.113,0.572,2.284,1.048,3.506,1.405
			C147.704,271.955,181.417,261.287,202.433,280.003z"/>
		<path style="fill:#CEDB50;" d="M159.129,244.862c0.756-0.757,1.983-0.756,2.739,0l1.818,1.817l4.689-4.819l0.916-4.527
			l8.423-17.102c0,0-40.949-14.208-59.725-15.658c-2.719,3.416-4.364,7.723-4.364,12.428L113.625,279
			c0,3.298,0.806,6.403,2.224,9.142L159.129,244.862z"/>
		<path style="opacity:0.5;fill:#CEDB50;" d="M115.856,288.135l43.273-43.272c0.756-0.757,1.983-0.756,2.739,0l1.818,1.817
			l4.689-4.819l0.916-4.527l8.423-17.102l-45.089-10.037c18.716,21.017,8.048,54.729-18.199,74.389
			C114.788,285.821,115.272,287.008,115.856,288.135z"/>
		<path style="fill:#e2e8f0;" d="M163.635,254.846c-0.756,0.757-1.982,0.755-2.737,0l-3.081-3.081c-0.755-0.756-0.756-1.981,0-2.737
			l14.718-14.718c0.757-0.758,1.982-0.756,2.738-0.001l3.082,3.081c0.755,0.755,0.757,1.98-0.001,2.737L163.635,254.846z"/>
		<g>
			<path style="fill:#e2e8f0;" d="M208.951,283.517c-0.003-0.094-0.006-0.186-0.009-0.279c-0.029-0.814-0.067-1.623-0.119-2.423
				c-0.002-0.043-0.006-0.086-0.009-0.128c-0.22-3.367-0.637-6.604-1.202-9.694c-0.006-0.032-0.011-0.065-0.018-0.098
				c-0.134-0.731-0.278-1.454-0.428-2.169c-0.019-0.089-0.038-0.178-0.057-0.268c-0.152-0.712-0.31-1.417-0.477-2.112
				c-0.003-0.013-0.007-0.025-0.009-0.037c-0.692-2.883-1.502-5.613-2.382-8.182c-0.046-0.133-0.091-0.266-0.137-0.399
				c-0.19-0.547-0.383-1.086-0.579-1.618c-0.056-0.151-0.112-0.3-0.169-0.449c-0.198-0.53-0.398-1.057-0.601-1.571
				c-0.03-0.073-0.059-0.143-0.088-0.217c-0.655-1.646-1.332-3.207-2.015-4.684c-0.077-0.165-0.153-0.332-0.23-0.496
				c-0.184-0.392-0.368-0.775-0.553-1.153c-0.098-0.202-0.197-0.402-0.294-0.601c-0.175-0.354-0.351-0.704-0.525-1.047
				c-0.106-0.208-0.213-0.412-0.319-0.615c-0.169-0.326-0.339-0.653-0.508-0.968c-0.098-0.184-0.195-0.358-0.292-0.538
				c-0.314-0.577-0.625-1.134-0.931-1.67c-0.107-0.189-0.217-0.383-0.324-0.567c-0.149-0.257-0.295-0.501-0.441-0.747
				c-0.117-0.198-0.234-0.396-0.35-0.587c-0.141-0.233-0.28-0.46-0.418-0.684c-0.113-0.183-0.224-0.362-0.335-0.538
				c-0.134-0.214-0.268-0.428-0.398-0.632c-0.104-0.161-0.204-0.314-0.305-0.47c-0.521-0.803-1.007-1.521-1.439-2.14
				c-0.028-0.039-0.058-0.082-0.084-0.121c-0.155-0.22-0.302-0.427-0.443-0.622c-0.011-0.015-0.02-0.027-0.03-0.042l-6.928,15.156
				c15.593,19.593,22.149,42.6,22.319,44.702c0.259-0.201,0.524-0.397,0.773-0.609C208.957,290.522,209.059,286.957,208.951,283.517
				z"/>
			<path style="fill:#e2e8f0;" d="M192.431,234.951c-1.009-1.398-1.638-2.152-1.638-2.152s-9.098,1.538-13.748,7.997
				c1.396,1.332,2.736,2.707,4.026,4.112C183.191,242.298,186.689,238.869,192.431,234.951z"/>
		</g>
		<g>
			<path style="fill:#e2e8f0;" d="M174.357,217.955c-0.237-0.153-0.488-0.311-0.74-0.468c-0.136-0.085-0.274-0.172-0.415-0.259
				c-0.256-0.158-0.518-0.318-0.787-0.48c-0.148-0.091-0.302-0.181-0.455-0.272c-0.282-0.168-0.565-0.337-0.862-0.509
				c-0.112-0.064-0.232-0.132-0.346-0.197c-0.665-0.382-1.363-0.771-2.094-1.167c-0.097-0.052-0.189-0.102-0.287-0.155
				c-0.342-0.184-0.698-0.368-1.054-0.554c-0.175-0.091-0.35-0.182-0.529-0.273c-0.359-0.184-0.727-0.367-1.099-0.552
				c-0.181-0.089-0.365-0.18-0.55-0.27c-0.393-0.19-0.789-0.382-1.196-0.572c-0.146-0.069-0.299-0.139-0.448-0.207
				c-1.505-0.696-3.098-1.388-4.781-2.056c-0.051-0.02-0.101-0.041-0.152-0.063c-0.521-0.205-1.052-0.407-1.589-0.608
				c-0.145-0.054-0.29-0.108-0.436-0.162c-0.532-0.196-1.073-0.391-1.621-0.58c-0.137-0.048-0.275-0.095-0.414-0.143
				c-0.584-0.199-1.173-0.396-1.774-0.589c-0.004-0.001-0.008-0.002-0.012-0.004c-2.035-0.649-4.164-1.25-6.381-1.782
				c-0.022-0.006-0.043-0.011-0.065-0.016c-0.683-0.163-1.376-0.318-2.075-0.468c-0.107-0.023-0.214-0.046-0.323-0.068
				c-0.697-0.146-1.399-0.286-2.112-0.417c-0.07-0.013-0.141-0.024-0.21-0.037c-3.057-0.555-6.256-0.964-9.583-1.182
				c-0.066-0.004-0.132-0.01-0.199-0.014c-0.776-0.049-1.559-0.086-2.349-0.113c-0.128-0.004-0.257-0.008-0.387-0.012
				c-0.793-0.024-1.591-0.039-2.398-0.039c-0.057,0-0.114,0.001-0.172,0.001c-2.628,0.002-5.326,0.129-8.086,0.403
				c-0.201,0.236-0.383,0.49-0.573,0.736c2.799,0.836,25.6,6.957,45.182,22.693l14.727-7.271c-0.803-0.579-1.832-1.29-3.057-2.083
				C174.556,218.083,174.46,218.02,174.357,217.955z"/>
			<path style="fill:#e2e8f0;" d="M179.864,221.868c0,0-0.753-0.628-2.15-1.637l-8.387,12.847c0.858,0.827,1.709,1.668,2.54,2.539
				C178.326,230.968,179.864,221.868,179.864,221.868z"/>
		</g>
		<path style="fill:#e2e8f0;" d="M180.979,246.402c-0.757,0.757-1.981,0.756-2.737-0.001l-11.98-11.979
			c-0.755-0.756-0.757-1.98,0-2.737l12.322-12.323c0.756-0.756,1.982-0.757,2.739,0l11.98,11.98c0.756,0.755,0.756,1.982,0,2.737
			L180.979,246.402z"/>
		<path style="fill:#38bdf8;" d="M195.625,197h-62.001c-6.114,0-11.578,2.75-15.247,7.073c29.907-2.975,52.51,11.233,59.336,16.158
			l0.87-0.87c0.756-0.756,1.982-0.757,2.739,0l11.98,11.98c0.756,0.755,0.756,1.982,0,2.737l-0.87,0.871
			c4.922,6.821,19.107,29.39,16.164,59.256c4.296-3.668,7.029-9.114,7.029-15.206l0.001-62C215.625,205.954,206.671,197,195.625,197
			z"/>
		<path style="opacity:0.5;fill:#38bdf8;" d="M215.624,245.464c-15.044-18.96-33.219-31.622-65.505-38.554l0.085,0.148
			c13.629,3.922,23.413,10.217,27.509,13.173l0.87-0.87c0.756-0.756,1.982-0.757,2.739,0l11.98,11.98
			c0.756,0.755,0.756,1.982,0,2.737l-0.87,0.871c4.922,6.821,19.107,29.39,16.164,59.256c4.296-3.668,7.029-9.114,7.029-15.206
			V245.464z"/>
	</g>
</g>
</svg>
